<?xml version="1.0" standalone="no"?>
<!DOCTYPE svg PUBLIC "-//W3C//DTD SVG 20010904//EN"
 "http://www.w3.org/TR/2001/REC-SVG-20010904/DTD/svg10.dtd">
<svg version="1.0" xmlns="http://www.w3.org/2000/svg"
 width="45px" height="68px" viewBox="0 0 180.000000 136.000000"
 preserveAspectRatio="xMidYMid meet">
<metadata>
Created by potrace 1.16, written by Peter Selinger 2001-2019
</metadata>
<g transform="translate(0.000000,136.000000) scale(0.100000,-0.100000)"
fill="#000000" stroke="none">
<path d="M895 1106 c55 -7 127 -21 160 -30 152 -45 291 -152 350 -271 27 -53
30 -70 30 -150 0 -82 -3 -97 -32 -156 -87 -176 -278 -284 -528 -298 l-120 -7
90 -7 c148 -13 292 15 420 81 91 47 192 147 230 227 77 164 21 361 -138 481
-132 99 -240 134 -432 140 l-130 3 100 -13z"/>
<path d="M734 1060 c-182 -27 -345 -132 -410 -265 -24 -51 -29 -72 -29 -140 0
-94 27 -164 91 -235 127 -141 387 -212 604 -166 153 33 303 132 358 238 13 24
17 34 10 23 -37 -56 -116 -127 -176 -158 -106 -55 -171 -71 -297 -70 -176 1
-306 52 -410 164 -65 70 -89 127 -90 214 0 92 34 163 113 237 100 92 249 147
406 149 77 2 79 2 31 9 -62 10 -134 10 -201 0z"/>
</g>
</svg>
